#!OML:ASF H:\GeneralSubjects\Female5\Project 1\Capture day 1\Session 1\Female5.ASF
:FULLY-SPECIFIED
:DEGREES
441
root 6.9831 15.7753 -0.802041 81.7398 -262.736 71.8888
lowerback 15.9663 2.79167 9.78076
upperback -10.8491 6.43682 -1.4236
thorax -20.2267 1.34945 -9.3066
lowerneck -15.9193 -3.16122 0.117302
upperneck 32.3643 -3.24579 -1.45156
head 13.555 -1.24252 -1.03116
rclavicle 1.03865e-014 1.98785e-014
rhumerus -45.6688 15.1881 -85.7792
rradius 39.6914
rwrist -11.8501
rhand -26.1833 -20.1759
rfingers 7.12502
rthumb 0.368697 -50.1553
lclavicle 1.03865e-014 1.98785e-014
lhumerus -48.778 -6.57385 69.6389
lradius 25.424
lwrist -1.59161
lhand -21.2829 31.8691
lfingers 7.12502
lthumb 5.10116 61.7877
rfemur -2.56462 6.42662 40.6857
rtibia 8.12579
rfoot -15.5201 -6.6528
rtoes -9.3146
lfemur -45.4599 -8.42814 -15.0567
ltibia 33.3809
lfoot -16.9841 -9.83524
ltoes -34.676
442
root 6.63303 15.8088 -0.798916 78.4938 -262.851 68.8049
lowerback 16.0059 2.604 9.72912
upperback -10.7491 6.13394 -1.51959
thorax -20.1857 1.21887 -9.29555
lowerneck -15.8758 -3.05693 0.503153
upperneck 32.4538 -3.17819 -1.52786
head 13.5737 -1.17121 -1.11686
rclavicle -4.02539e-015 1.59028e-014
rhumerus -46.6594 14.309 -85.922
rradius 39.059
rwrist -11.7149
rhand -26.2753 -20.3759
rfingers 7.12502
rthumb 0.279899 -50.3555
lclavicle -4.02539e-015 1.59028e-014
lhumerus -47.7232 -7.82103 70.7218
lradius 25.1013
lwrist -2.26221
lhand -21.0283 32.2898
lfingers 7.12502
lthumb 5.34705 62.2024
rfemur -3.74896 7.03711 40.4229
rtibia 8.16229
rfoot -15.6123 -7.73925
rtoes -9.49506
lfemur -45.7249 -7.41364 -16.0314
ltibia 39.3468
lfoot -15.3333 -12.6766
ltoes -35.7321
443
root 6.29198 15.8482 -0.803591 75.7191 -262.914 66.1548
lowerback 15.935 2.42702 9.79646
upperback -10.6757 5.86785 -1.62335
thorax -20.0887 1.09312 -9.36193
lowerneck -15.8288 -2.9531 0.893357
upperneck 32.5967 -3.11608 -1.58052
head 13.6157 -1.09579 -1.19547
rclavicle 2.63887e-014 -1.03368e-014
rhumerus -47.71 13.2181 -85.9761
rradius 38.3024
rwrist -11.4854
rhand -26.4307 -20.5497
rfingers 7.12502
rthumb 0.129807 -50.5294
lclavicle 2.63887e-014 -1.03368e-014
lhumerus -46.6092 -9.07273 71.727
lradius 25.0164
lwrist -2.62219
lhand -21.0158 32.9948
lfingers 7.12502
lthumb 5.35905 62.9071
rfemur -4.93988 7.45099 40.0782
rtibia 8.14972
rfoot -15.4 -8.65159
rtoes -10.2401
lfemur -45.512 -6.5818 -16.7446
ltibia 44.9496
lfoot -14.2458 -16.1137
ltoes -37.3962
444
root 5.95768 15.8898 -0.816608 73.5924 -262.979 64.1374
lowerback 15.8079 2.26899 9.94948
upperback -10.6249 5.64454 -1.74366
thorax -19.9673 0.974882 -9.50543
lowerneck -15.7872 -2.85202 1.25496
upperneck 32.7684 -3.06682 -1.57582
head 13.6741 -1.01992 -1.24902
rclavicle 7.50412e-015 0
rhumerus -48.8178 11.934 -85.9233
rradius 37.4573
rwrist -11.1783
rhand -26.6116 -20.6859
rfingers 7.12502
rthumb -0.0450033 -50.6656
lclavicle 7.50412e-015 0
lhumerus -45.4917 -10.3032 72.6327
lradius 25.2478
lwrist -2.64884
lhand -21.1772 33.7552
lfingers 7.12502
lthumb 5.20329 63.6713
rfemur -6.09637 7.71272 39.647
rtibia 8.05707
rfoot -14.9568 -9.42296
rtoes -11.5495
lfemur -44.7752 -5.80696 -17.3014
ltibia 50.0213
lfoot -13.6202 -19.5431
ltoes -39.2898
445
root 5.62876 15.9293 -0.837479 71.9633 -263.117 62.6241
lowerback 15.6654 2.13479 10.117
upperback -10.5901 5.45295 -1.89443
thorax -19.8478 0.865125 -9.7031
lowerneck -15.7547 -2.75477 1.55706
upperneck 32.9532 -3.02973 -1.49731
head 13.7438 -0.945566 -1.26524
rclavicle 1.23246e-014 1.59028e-015
rhumerus -49.9864 10.4991 -85.7534
rradius 36.5582
rwrist -10.8092
rhand -26.7693 -20.799
rfingers 7.12502
rthumb -0.197258 -50.7787
lclavicle 1.23246e-014 1.59028e-015
lhumerus -44.4243 -11.532 73.4517
lradius 25.8417
lwrist -2.35051
lhand -21.4825 34.3968
lfingers 7.12502
lthumb 4.90847 64.3199
rfemur -7.18038 7.9114 39.0989
rtibia 7.87525
rfoot -14.3833 -10.1161
rtoes -13.3533
lfemur -43.4727 -5.01872 -17.8239
ltibia 54.3998
lfoot -13.2373 -22.425
ltoes -41.0457
446
root 5.30428 15.9633 -0.86427 70.5288 -263.382 61.3214
lowerback 15.5294 2.0263 10.2215
upperback -10.5677 5.27661 -2.0835
thorax -19.749 0.764745 -9.91775
lowerneck -15.7288 -2.66132 1.79375
upperneck 33.1363 -2.99712 -1.3652
head 13.8177 -0.873648 -1.24946
rclavicle -7.02704e-014 2.94201e-014
rhumerus -51.2083 8.97791 -85.4694
rradius 35.6105
rwrist -10.4108
rhand -26.818 -20.903
rfingers 7.12502
rthumb -0.244343 -50.8826
lclavicle -7.02704e-014 2.94201e-014
lhumerus -43.4338 -12.7797 74.1945
lradius 26.7988
lwrist -1.77772
lhand -21.8732 34.832
lfingers 7.12502
lthumb 4.53122 64.7635
rfemur -8.18239 8.12863 38.4067
rtibia 7.62009
rfoot -13.7778 -10.7816
rtoes -15.5724
lfemur -41.5809 -4.19299 -18.3929
ltibia 57.9399
lfoot -12.9006 -24.3839
ltoes -42.3473
447
root 4.98335 15.9893 -0.894032 69.0438 -263.781 59.9795
lowerback 15.4039 1.94334 10.2096
upperback -10.5602 5.10435 -2.30493
thorax -19.6843 0.67553 -10.1099
lowerneck -15.6971 -2.56788 1.98255
upperneck 33.3128 -2.95559 -1.21619
head 13.8897 -0.801412 -1.21672
rclavicle 1.08338e-014 -1.59028e-014
rhumerus -52.4826 7.44822 -85.0917
rradius 34.6149
rwrist -10.0262
rhand -26.671 -21.0028
rfingers 7.12502
rthumb -0.102313 -50.9825
lclavicle 1.08338e-014 -1.59028e-014
lhumerus -42.5364 -14.0614 74.8656
lradius 28.109
lwrist -1.02152
lhand -22.2672 35.092
lfingers 7.12502
lthumb 4.1508 65.0313
rfemur -9.13356 8.41578 37.5764
rtibia 7.34676
rfoot -13.216 -11.4463
rtoes -18.0294
lfemur -39.1186 -3.33279 -19.0164
ltibia 60.5549
lfoot -12.4922 -25.2303
ltoes -42.9332
448
root 4.66557 16.0066 -0.924067 67.457 -264.274 58.5357
lowerback 15.2773 1.8843 10.0809
upperback -10.5722 4.93692 -2.54126
thorax -19.6523 0.599861 -10.258
lowerneck -15.6487 -2.46809 2.15037
upperneck 33.4847 -2.88705 -1.09547
head 13.9567 -0.723789 -1.18665
rclavicle 1.66979e-014 2.22639e-014
rhumerus -53.7998 5.97273 -84.644
rradius 33.5662
rwrist -9.66781
rhand -26.3357 -21.074
rfingers 7.12502
rthumb 0.22156 -51.0537
lclavicle 1.66979e-014 2.22639e-014
lhumerus -41.7337 -15.3992 75.4756
lradius 29.7455
lwrist -0.182788
lhand -22.6031 35.1862
lfingers 7.12502
lthumb 3.82639 65.1316
rfemur -10.0798 8.77751 36.6568
rtibia 7.11153
rfoot -12.7268 -12.1046
rtoes -20.5363
lfemur -36.1432 -2.46355 -19.6355
ltibia 62.2247
lfoot -11.9372 -24.9276
ltoes -42.6653
449
root 4.35089 16.015 -0.952852 65.8871 -264.803 57.1045
lowerback 15.132 1.84427 9.88078
upperback -10.6022 4.78039 -2.77453
thorax -19.6354 0.537876 -10.3661
lowerneck -15.5682 -2.3548 2.33413
upperneck 33.6507 -2.77858 -1.03805
head 14.0133 -0.635338 -1.17748
rclavicle -2.28602e-014 -2.78299e-014
rhumerus -55.1348 4.60187 -84.1617
rradius 32.4674
rwrist -9.36052
rhand -25.8957 -21.1048
rfingers 7.12502
rthumb 0.646478 -51.0836
lclavicle -2.28602e-014 -2.78299e-014
lhumerus -41.0035 -16.7805 76.0131
lradius 31.6383
lwrist 0.648142
lhand -22.9835 35.1389
lfingers 7.12502
lthumb 3.459 65.0906
rfemur -11.0436 9.17719 35.7204
rtibia 6.9249
rfoot -12.2813 -12.7397
rtoes -22.9609
lfemur -32.7323 -1.62379 -20.1872
ltibia 62.9176
lfoot -11.229 -23.4935
ltoes -41.5163
